<svg width="557" height="557" viewBox="0 0 557 557" fill="none" xmlns="http://www.w3.org/2000/svg">
<path d="M551 278.5C551 428.998 428.998 551 278.5 551C128.002 551 6 428.998 6 278.5C6 128.002 128.002 6 278.5 6C428.998 6 551 128.002 551 278.5Z" fill="white"/>
<path d="M551 278.5C551 428.998 428.998 551 278.5 551C128.002 551 6 428.998 6 278.5C6 128.002 128.002 6 278.5 6C428.998 6 551 128.002 551 278.5Z" stroke="black" stroke-width="12" stroke-linejoin="round"/>
<path d="M111.04 440.214C111.053 441.117 111.243 442.009 111.601 442.838C111.958 443.668 112.475 444.419 113.123 445.048C113.77 445.678 114.535 446.173 115.374 446.507C116.214 446.841 117.11 447.006 118.013 446.993H438.964C439.868 447.007 440.766 446.843 441.606 446.51C442.446 446.177 443.212 445.681 443.861 445.051C444.509 444.422 445.027 443.67 445.385 442.84C445.743 442.01 445.934 441.118 445.946 440.214V432.121C446.105 429.679 446.431 417.514 438.409 404.052C433.349 395.563 426.005 388.237 416.581 382.26C405.183 375.031 390.681 369.804 373.138 366.656C364.232 365.407 355.398 363.689 346.673 361.508C323.471 355.584 321.443 350.339 321.425 350.286C321.289 349.769 321.093 349.269 320.844 348.796C320.65 347.826 320.182 344.141 321.082 334.277C323.356 309.214 336.8 294.403 347.599 282.502C351.002 278.756 354.22 275.203 356.697 271.73C367.39 256.743 368.378 239.685 368.422 238.627C368.462 236.752 368.203 234.884 367.655 233.091C366.597 229.829 364.631 227.801 363.185 226.303C362.843 225.959 362.511 225.606 362.189 225.245C362.083 225.121 361.801 224.786 362.057 223.103C362.921 217.678 363.519 212.215 363.846 206.732C364.34 197.899 364.719 184.693 362.436 171.831C362.101 169.374 361.595 166.944 360.92 164.558C358.522 155.701 354.643 148.149 349.283 141.902C348.357 140.888 325.895 117.218 260.686 112.369C251.667 111.699 242.755 112.061 233.974 112.51C231.378 112.569 228.793 112.888 226.261 113.462C219.525 115.199 217.727 119.466 217.26 121.855C216.475 125.822 217.851 128.89 218.759 130.935C218.891 131.226 219.058 131.587 218.767 132.539C217.26 134.884 214.871 137 212.447 139.001C211.741 139.592 195.397 153.697 194.498 172.113C192.074 186.121 192.25 207.94 195.115 223.023C195.291 223.861 195.529 225.095 195.133 225.932C192.047 228.692 188.556 231.821 188.565 238.962C188.6 239.685 189.596 256.734 200.29 271.73C202.758 275.203 205.976 278.747 209.37 282.494L209.387 282.502C220.187 294.403 233.63 309.214 235.905 334.268C236.795 344.141 236.328 347.817 236.143 348.796C235.89 349.269 235.692 349.768 235.552 350.286C235.543 350.339 233.525 355.566 210.428 361.482C197.098 364.893 183.981 366.639 183.584 366.683C166.535 369.566 152.121 374.67 140.74 381.855C131.351 387.788 123.99 395.14 118.877 403.691C110.696 417.355 110.917 429.803 111.031 432.077L111.04 440.214Z" stroke="black" stroke-width="12" stroke-linejoin="round"/>
</svg>
