<svg width="74" height="74" viewBox="0 0 74 74" fill="none" xmlns="http://www.w3.org/2000/svg">
<path d="M22.7274 31.0455V21.4558C18.2252 22.0195 14.7854 25.8568 14.7854 30.4601C14.7854 35.4681 18.8612 39.5439 23.8692 39.5439C28.4725 39.5439 32.3098 36.1041 32.8735 31.6019H23.385C23.3561 31.6091 23.3344 31.6164 23.3055 31.6164C22.9875 31.6236 22.7274 31.3707 22.7274 31.0455Z" fill="#0B0008"/>
<path d="M63.5938 11.5625H38.1562V6.9375C38.1562 6.30156 37.6359 5.78125 37 5.78125C36.3641 5.78125 35.8438 6.30156 35.8438 6.9375V11.5625H10.4062C8.49121 11.5625 6.9375 13.1162 6.9375 15.0312V45.0938C6.9375 47.0088 8.49121 48.5625 10.4062 48.5625H33.8275L15.2336 64.1791C14.7422 64.591 14.6844 65.3209 15.0891 65.8051C15.3203 66.0797 15.6455 66.217 15.9779 66.217C16.2381 66.217 16.5055 66.1303 16.7223 65.9424L35.8438 49.885V67.0625C35.8438 67.6984 36.3641 68.2188 37 68.2188C37.6359 68.2188 38.1562 67.6984 38.1562 67.0625V49.885L57.2777 65.9424C57.4945 66.123 57.7619 66.217 58.0221 66.217C58.3545 66.217 58.6797 66.0797 58.9109 65.8051C59.3229 65.3137 59.2578 64.5838 58.7664 64.1791L40.1725 48.5625H63.5938C65.5088 48.5625 67.0625 47.0088 67.0625 45.0938V15.0312C67.0625 13.1162 65.5088 11.5625 63.5938 11.5625ZM64.75 45.0938C64.75 45.7297 64.2297 46.25 63.5938 46.25H10.4062C9.77031 46.25 9.25 45.7297 9.25 45.0938V15.0312C9.25 14.3953 9.77031 13.875 10.4062 13.875H63.5938C64.2297 13.875 64.75 14.3953 64.75 15.0312V45.0938Z" fill="#0B0008"/>
<path d="M34.0587 30.8212C34.0443 30.7923 34.0226 30.7634 34.0082 30.7345C33.9865 30.6984 33.972 30.6623 33.9431 30.6333C33.9214 30.6117 33.8925 30.5972 33.8708 30.5755C33.8347 30.5466 33.8058 30.525 33.7625 30.5033C33.7335 30.4888 33.6974 30.4888 33.6685 30.4816C33.6324 30.4744 33.5962 30.4527 33.5601 30.4527H23.8837V20.8125V20.798V20.7835C23.8837 20.7546 23.8693 20.7257 23.8621 20.6968C23.8548 20.6535 23.8476 20.6173 23.8332 20.5812C23.8187 20.5523 23.797 20.5234 23.7753 20.4945C23.7537 20.4583 23.732 20.4294 23.7031 20.4005C23.6742 20.3716 23.6453 20.3572 23.6091 20.3355C23.5802 20.3138 23.5513 20.2921 23.5152 20.2849C23.4791 20.2705 23.4357 20.2632 23.3923 20.2632C23.3634 20.256 23.3345 20.2488 23.3056 20.2488H23.2767C17.8712 20.5595 13.6365 25.0544 13.6365 30.4744C13.6365 36.1255 18.2326 40.7144 23.8765 40.7144C29.2964 40.7144 33.7914 36.4796 34.1021 31.0742V31.0597V31.0453C34.1021 30.9947 34.0876 30.9658 34.0804 30.9369C34.0732 30.9007 34.0732 30.8574 34.0587 30.8212ZM23.8693 39.5509C18.8613 39.5509 14.7855 35.4751 14.7855 30.4671C14.7855 25.8638 18.2253 22.0265 22.7275 21.4628V31.0525C22.7275 31.3705 22.9876 31.6306 23.3056 31.6306C23.3345 31.6306 23.3562 31.6162 23.3851 31.6162H32.8808C32.3099 36.1111 28.4726 39.5509 23.8693 39.5509Z" fill="#0B0008"/>
<path d="M26.0156 19.7937C25.6977 19.7937 25.4375 20.0539 25.4375 20.3718V28.3283C25.4375 28.6462 25.6977 28.9064 26.0156 28.9064H33.9721C34.29 28.9064 34.5502 28.6462 34.5502 28.3283C34.5502 23.6238 30.7201 19.7937 26.0156 19.7937ZM26.5938 27.7501V20.9716C30.207 21.2535 33.0904 24.1441 33.3723 27.7501H26.5938ZM57.2344 31.2189H41.0469C40.7289 31.2189 40.4688 31.4791 40.4688 31.797C40.4688 32.115 40.7289 32.3751 41.0469 32.3751H57.2344C57.5523 32.3751 57.8125 32.115 57.8125 31.797C57.8125 31.4791 57.5523 31.2189 57.2344 31.2189ZM57.2344 26.5939H41.0469C40.7289 26.5939 40.4688 26.8541 40.4688 27.172C40.4688 27.49 40.7289 27.7501 41.0469 27.7501H57.2344C57.5523 27.7501 57.8125 27.49 57.8125 27.172C57.8125 26.8541 57.5523 26.5939 57.2344 26.5939ZM49.1406 35.8439H41.0469C40.7289 35.8439 40.4688 36.1041 40.4688 36.422C40.4688 36.74 40.7289 37.0001 41.0469 37.0001H49.1406C49.4586 37.0001 49.7188 36.74 49.7188 36.422C49.7188 36.1041 49.4586 35.8439 49.1406 35.8439ZM57.2344 21.9689H41.0469C40.7289 21.9689 40.4688 22.2291 40.4688 22.547C40.4688 22.865 40.7289 23.1251 41.0469 23.1251H57.2344C57.5523 23.1251 57.8125 22.865 57.8125 22.547C57.8125 22.2291 57.5523 21.9689 57.2344 21.9689Z" fill="#0B0008"/>
</svg>
