<svg width="173" height="173" viewBox="0 0 173 173" fill="none" xmlns="http://www.w3.org/2000/svg">
<path fill-rule="evenodd" clip-rule="evenodd" d="M0 86.5C0 63.5588 9.11337 41.5572 25.3353 25.3353C41.5572 9.11337 63.5588 0 86.5 0C109.441 0 131.443 9.11337 147.665 25.3353C163.887 41.5572 173 63.5588 173 86.5C173 109.441 163.887 131.443 147.665 147.665C131.443 163.887 109.441 173 86.5 173C63.5588 173 41.5572 163.887 25.3353 147.665C9.11337 131.443 0 109.441 0 86.5ZM86.5 12.4075C72.1388 12.408 58.0873 16.5821 46.0549 24.422C34.0225 32.2618 24.5277 43.4296 18.7258 56.5666C12.9239 69.7036 11.0648 84.2436 13.3748 98.4178C15.6848 112.592 22.0643 125.789 31.7371 136.404C37.6086 127.206 45.7045 119.636 55.2764 114.394C64.8482 109.153 75.5871 106.409 86.5 106.417C97.4129 106.409 108.152 109.153 117.724 114.394C127.295 119.636 135.391 127.206 141.263 136.404C150.936 125.789 157.315 112.592 159.625 98.4178C161.935 84.2436 160.076 69.7036 154.274 56.5666C148.472 43.4296 138.978 32.2618 126.945 24.422C114.913 16.5821 100.861 12.408 86.5 12.4075ZM131.977 144.998C127.358 137.03 120.725 130.417 112.742 125.823C104.76 121.229 95.7099 118.816 86.5 118.825C77.2901 118.816 68.2398 121.229 60.2575 125.823C52.2753 130.417 45.6419 137.03 41.0232 144.998C54.0163 155.127 70.0253 160.617 86.5 160.592C103.635 160.592 119.413 154.767 131.977 144.998ZM55.8077 73.5048C55.8077 65.3647 59.0414 57.5579 64.7973 51.802C70.5532 46.0461 78.3599 42.8125 86.5 42.8125C94.6401 42.8125 102.447 46.0461 108.203 51.802C113.959 57.5579 117.192 65.3647 117.192 73.5048C117.192 81.6449 113.959 89.4516 108.203 95.2075C102.447 100.963 94.6401 104.197 86.5 104.197C78.3599 104.197 70.5532 100.963 64.7973 95.2075C59.0414 89.4516 55.8077 81.6449 55.8077 73.5048ZM86.5 55.22C84.0988 55.22 81.7211 55.6929 79.5027 56.6118C77.2843 57.5307 75.2686 58.8776 73.5707 60.5755C71.8728 62.2734 70.526 64.2891 69.6071 66.5075C68.6882 68.7259 68.2152 71.1036 68.2152 73.5048C68.2152 75.9059 68.6882 78.2836 69.6071 80.502C70.526 82.7204 71.8728 84.7361 73.5707 86.434C75.2686 88.1319 77.2843 89.4788 79.5027 90.3977C81.7211 91.3166 84.0988 91.7895 86.5 91.7895C91.3494 91.7895 96.0002 89.8631 99.4293 86.434C102.858 83.005 104.785 78.3542 104.785 73.5048C104.785 68.6553 102.858 64.0045 99.4293 60.5755C96.0002 57.1464 91.3494 55.22 86.5 55.22Z" fill="#FB1515"/>
</svg>
