<svg width="173" height="173" viewBox="0 0 173 173" fill="none" xmlns="http://www.w3.org/2000/svg">
<path d="M0 0H173V173H0V0ZM151.375 155.7H155.7V17.3H17.3V155.7H21.625C21.625 144.229 26.1817 133.229 34.2926 125.118C42.4036 117.007 53.4044 112.45 64.875 112.45H108.125C119.596 112.45 130.596 117.007 138.707 125.118C146.818 133.229 151.375 144.229 151.375 155.7ZM86.5 43.25C80.7647 43.25 75.2643 45.5283 71.2088 49.5838C67.1533 53.6393 64.875 59.1397 64.875 64.875C64.875 70.6103 67.1533 76.1107 71.2088 80.1662C75.2643 84.2217 80.7647 86.5 86.5 86.5C92.2353 86.5 97.7357 84.2217 101.791 80.1662C105.847 76.1107 108.125 70.6103 108.125 64.875C108.125 59.1397 105.847 53.6393 101.791 49.5838C97.7357 45.5283 92.2353 43.25 86.5 43.25ZM47.575 64.875C47.575 54.5514 51.676 44.6507 58.9759 37.3509C66.2757 30.051 76.1764 25.95 86.5 25.95C96.8235 25.95 106.724 30.051 114.024 37.3509C121.324 44.6507 125.425 54.5514 125.425 64.875C125.425 75.1985 121.324 85.0993 114.024 92.3991C106.724 99.699 96.8235 103.8 86.5 103.8C76.1764 103.8 66.2757 99.699 58.9759 92.3991C51.676 85.0993 47.575 75.1985 47.575 64.875ZM64.875 129.75C57.9926 129.75 51.3921 132.484 46.5256 137.351C41.659 142.217 38.925 148.818 38.925 155.7H134.075C134.075 148.818 131.341 142.217 126.474 137.351C121.608 132.484 115.007 129.75 108.125 129.75H64.875Z" fill="#CCCCCC"/>
</svg>
